<svg width="46" height="54" viewBox="0 0 46 54" fill="none" xmlns="http://www.w3.org/2000/svg">
<path d="M37.502 35.5558V45.5625C37.502 50.2149 33.7169 54 29.0645 54H8.60352C3.95108 54 0.166016 50.2149 0.166016 45.5625V8.4375C0.166016 3.78506 3.95108 0 8.60352 0H9.97461C11.1396 0 12.084 0.944367 12.084 2.10938C12.084 3.27438 11.1396 4.21875 9.97461 4.21875H8.60352C6.2773 4.21875 4.38477 6.11128 4.38477 8.4375V45.5625C4.38477 47.8887 6.2773 49.7812 8.60352 49.7812H29.0645C31.3907 49.7812 33.2832 47.8887 33.2832 45.5625V35.5558C33.2832 34.3908 34.2276 33.4465 35.3926 33.4465C36.5576 33.4465 37.502 34.3908 37.502 35.5558ZM20.9434 46.5246C22.1084 46.5246 23.0527 45.5802 23.0527 44.4152C23.0527 43.2502 22.1084 42.3058 20.9434 42.3058H16.7246C15.5596 42.3058 14.6152 43.2502 14.6152 44.4152C14.6152 45.5802 15.5596 46.5246 16.7246 46.5246H20.9434ZM20.9434 11.509C19.7784 11.509 18.834 12.4533 18.834 13.6183C18.834 14.7833 19.7784 15.7277 20.9434 15.7277C22.1084 15.7277 23.0527 14.7833 23.0527 13.6183C23.0527 12.4533 22.1084 11.509 20.9434 11.509ZM28.8535 11.509C27.6885 11.509 26.7441 12.4533 26.7441 13.6183C26.7441 14.7833 27.6885 15.7277 28.8535 15.7277C30.0185 15.7277 30.9629 14.7833 30.9629 13.6183C30.9629 12.4533 30.0185 11.509 28.8535 11.509ZM36.8691 11.509C35.7041 11.509 34.7598 12.4533 34.7598 13.6183C34.7598 14.7833 35.7041 15.7277 36.8691 15.7277C38.0341 15.7277 38.9785 14.7833 38.9785 13.6183C38.9785 12.4533 38.0341 11.509 36.8691 11.509ZM45.834 13.8024V13.8293C45.834 21.4476 39.1629 27.6457 30.9629 27.6457H26.7441C26.6204 27.6457 26.4991 27.635 26.3813 27.6146C24.6892 27.5753 23.0209 27.2611 21.4062 26.6784L14.8333 29.5759C14.5598 29.6965 14.2701 29.7551 13.983 29.7552C13.4453 29.7552 12.916 29.5497 12.5142 29.1601C11.8977 28.5625 11.705 27.651 12.0268 26.8551L14.2673 21.3128C12.6968 19.0812 11.873 16.5091 11.873 13.8024C11.873 6.19882 18.5442 0.0128672 26.7441 0.0128672H30.9629C39.1629 0.0128672 45.834 6.19882 45.834 13.8024ZM41.6152 13.8024C41.6152 8.52504 36.8366 4.23162 30.9629 4.23162H26.7441C20.8705 4.23162 16.0918 8.52504 16.0918 13.8024C16.0918 15.9223 16.8492 17.9313 18.2821 19.6124C18.792 20.2107 18.9269 21.0427 18.6323 21.7714L17.885 23.6201L20.5082 22.4638C21.0424 22.2284 21.6499 22.2247 22.1868 22.4538C23.6584 23.0816 25.1917 23.4 26.7441 23.4C26.8591 23.4 26.9718 23.4092 27.0819 23.4269H30.9629C36.8366 23.4269 41.6152 19.1215 41.6152 13.8293V13.8024Z" fill="#003CA6"/>
</svg>
